<?xml version="1.0" encoding="UTF-8" standalone="no"?>
<!DOCTYPE svg PUBLIC "-//W3C//DTD SVG 1.1//EN"
 "http://www.w3.org/Graphics/SVG/1.1/DTD/svg11.dtd">
<!-- Generated by graphviz version 14.0.2 (20251019.1705)
 -->
<!-- Title: G Pages: 1 -->
<svg width="688pt" height="808pt"
 viewBox="0.00 0.00 688.00 808.00" xmlns="http://www.w3.org/2000/svg" xmlns:xlink="http://www.w3.org/1999/xlink">
<g id="graph0" class="graph" transform="scale(1 1) rotate(0) translate(4 804.16)">
<title>G</title><style>.edge>path:hover{stroke-width:8}</style>
<polygon fill="white" stroke="none" points="-4,4 -4,-804.16 684.43,-804.16 684.43,4 -4,4"/>
<!-- certifi -->
<g id="node1" class="node">
<title>certifi</title><style>.edge>path:hover{stroke-width:8}</style>
<ellipse fill="#b65353" stroke="black" cx="337.94" cy="-710.16" rx="27" ry="18"/>
<text xml:space="preserve" text-anchor="middle" x="337.94" y="-706.66" font-family="Helvetica,sans-Serif" font-size="10.00" fill="#ffffff">certifi</text>
</g>
<!-- src_configuration_mongo_db_connection -->
<g id="node12" class="node">
<title>src_configuration_mongo_db_connection</title><style>.edge>path:hover{stroke-width:8}</style>
<ellipse fill="#a13586" stroke="black" cx="416.94" cy="-481.04" rx="80.26" ry="31.11"/>
<text xml:space="preserve" text-anchor="middle" x="416.94" y="-489.54" font-family="Helvetica,sans-Serif" font-size="10.00" fill="#ffffff">src.</text>
<text xml:space="preserve" text-anchor="middle" x="416.94" y="-477.54" font-family="Helvetica,sans-Serif" font-size="10.00" fill="#ffffff">configuration.</text>
<text xml:space="preserve" text-anchor="middle" x="416.94" y="-465.54" font-family="Helvetica,sans-Serif" font-size="10.00" fill="#ffffff">mongo_db_connection</text>
</g>
<!-- certifi&#45;&gt;src_configuration_mongo_db_connection -->
<g id="edge1" class="edge">
<title>certifi&#45;&gt;src_configuration_mongo_db_connection</title><style>.edge>path:hover{stroke-width:8}</style>
<path fill="none" stroke="black" d="M416.94,-637.16C426.59,-599.52 425.36,-555.04 422.45,-523.38"/>
<polygon fill="#b65353" stroke="black" points="425.98,-523.43 421.48,-513.84 419.01,-524.14 425.98,-523.43"/>
<path fill="none" stroke="black" d="M359.26,-698.82C379.54,-687.49 408.21,-667.15 416.94,-639.16"/>
</g>
<!-- from_root -->
<g id="node2" class="node">
<title>from_root</title><style>.edge>path:hover{stroke-width:8}</style>
<ellipse fill="#c0a040" stroke="black" cx="254.94" cy="-782.16" rx="34.43" ry="18"/>
<text xml:space="preserve" text-anchor="middle" x="254.94" y="-778.66" font-family="Helvetica,sans-Serif" font-size="10.00" fill="#000000">from_root</text>
</g>
<!-- src_logger -->
<g id="node19" class="node">
<title>src_logger</title><style>.edge>path:hover{stroke-width:8}</style>
<ellipse fill="#dd18ac" stroke="black" cx="226.94" cy="-638.16" rx="35.33" ry="18"/>
<text xml:space="preserve" text-anchor="middle" x="226.94" y="-634.66" font-family="Helvetica,sans-Serif" font-size="10.00" fill="#ffffff">src.logger</text>
</g>
<!-- from_root&#45;&gt;src_logger -->
<g id="edge2" class="edge">
<title>from_root&#45;&gt;src_logger</title><style>.edge>path:hover{stroke-width:8}</style>
<path fill="none" stroke="black" d="M254.94,-709.16C248.57,-695.49 242.26,-679.94 237.25,-666.97"/>
<polygon fill="#c0a040" stroke="black" points="240.57,-665.87 233.75,-657.77 234.03,-668.36 240.57,-665.87"/>
<path fill="none" stroke="black" d="M258.86,-763.88C261.3,-749.15 262.7,-727.79 254.94,-711.16"/>
</g>
<!-- loguru -->
<g id="node3" class="node">
<title>loguru</title><style>.edge>path:hover{stroke-width:8}</style>
<ellipse fill="#80cc33" stroke="black" cx="333.94" cy="-782.16" rx="27" ry="18"/>
<text xml:space="preserve" text-anchor="middle" x="333.94" y="-778.66" font-family="Helvetica,sans-Serif" font-size="10.00" fill="#000000">loguru</text>
</g>
<!-- src_exception -->
<g id="node18" class="node">
<title>src_exception</title><style>.edge>path:hover{stroke-width:8}</style>
<ellipse fill="#e619b3" stroke="black" cx="524.94" cy="-638.16" rx="44.8" ry="18"/>
<text xml:space="preserve" text-anchor="middle" x="524.94" y="-634.66" font-family="Helvetica,sans-Serif" font-size="10.00" fill="#ffffff">src.exception</text>
</g>
<!-- loguru&#45;&gt;src_exception -->
<g id="edge3" class="edge">
<title>loguru&#45;&gt;src_exception</title><style>.edge>path:hover{stroke-width:8}</style>
<path fill="none" stroke="black" d="M358.74,-775.03C385.76,-767.44 429.23,-752.44 459.94,-728.16 481.44,-711.16 499.23,-685.31 510.74,-665.85"/>
<polygon fill="#80cc33" stroke="black" points="513.65,-667.79 515.56,-657.37 507.57,-664.33 513.65,-667.79"/>
</g>
<!-- loguru&#45;&gt;src_logger -->
<g id="edge4" class="edge">
<title>loguru&#45;&gt;src_logger</title><style>.edge>path:hover{stroke-width:8}</style>
<path fill="none" stroke="black" d="M313.82,-770C294.75,-758.17 267.26,-737.56 254.94,-711.16"/>
</g>
<!-- numpy -->
<g id="node4" class="node">
<title>numpy</title><style>.edge>path:hover{stroke-width:8}</style>
<ellipse fill="#33cc59" stroke="black" cx="579.94" cy="-566.16" rx="27.21" ry="18"/>
<text xml:space="preserve" text-anchor="middle" x="579.94" y="-562.66" font-family="Helvetica,sans-Serif" font-size="10.00" fill="#000000">numpy</text>
</g>
<!-- sklearn -->
<g id="node7" class="node">
<title>sklearn</title><style>.edge>path:hover{stroke-width:8}</style>
<ellipse fill="#7a31c4" stroke="black" cx="502.94" cy="-391.3" rx="28.56" ry="18"/>
<text xml:space="preserve" text-anchor="middle" x="502.94" y="-387.8" font-family="Helvetica,sans-Serif" font-size="10.00" fill="#ffffff">sklearn</text>
</g>
<!-- numpy&#45;&gt;sklearn -->
<g id="edge5" class="edge">
<title>numpy&#45;&gt;sklearn</title><style>.edge>path:hover{stroke-width:8}</style>
<path fill="none" stroke="black" d="M583.82,-548.04C588.23,-524.53 592.91,-481.55 576.94,-449.93 568.03,-432.28 550.93,-418.41 535.41,-408.71"/>
<polygon fill="#33cc59" stroke="black" points="537.25,-405.73 526.85,-403.7 533.71,-411.77 537.25,-405.73"/>
</g>
<!-- src_data_access_proj1_data -->
<g id="node14" class="node">
<title>src_data_access_proj1_data</title><style>.edge>path:hover{stroke-width:8}</style>
<ellipse fill="#913079" stroke="black" cx="194.94" cy="-301.56" rx="52.68" ry="31.11"/>
<text xml:space="preserve" text-anchor="middle" x="194.94" y="-310.06" font-family="Helvetica,sans-Serif" font-size="10.00" fill="#ffffff">src.</text>
<text xml:space="preserve" text-anchor="middle" x="194.94" y="-298.06" font-family="Helvetica,sans-Serif" font-size="10.00" fill="#ffffff">data_access.</text>
<text xml:space="preserve" text-anchor="middle" x="194.94" y="-286.06" font-family="Helvetica,sans-Serif" font-size="10.00" fill="#ffffff">proj1_data</text>
</g>
<!-- numpy&#45;&gt;src_data_access_proj1_data -->
<g id="edge6" class="edge">
<title>numpy&#45;&gt;src_data_access_proj1_data</title><style>.edge>path:hover{stroke-width:8}</style>
<path fill="none" stroke="black" d="M571.6,-548.86C561.97,-531.09 544.89,-502.47 524.94,-482.04"/>
</g>
<!-- pandas -->
<g id="node5" class="node">
<title>pandas</title><style>.edge>path:hover{stroke-width:8}</style>
<ellipse fill="#33cccc" stroke="black" cx="169.94" cy="-566.16" rx="28.56" ry="18"/>
<text xml:space="preserve" text-anchor="middle" x="169.94" y="-562.66" font-family="Helvetica,sans-Serif" font-size="10.00" fill="#000000">pandas</text>
</g>
<!-- src_components_data_ingestion -->
<g id="node10" class="node">
<title>src_components_data_ingestion</title><style>.edge>path:hover{stroke-width:8}</style>
<ellipse fill="#73265f" stroke="black" cx="338.94" cy="-166.34" rx="55.86" ry="31.11"/>
<text xml:space="preserve" text-anchor="middle" x="338.94" y="-174.84" font-family="Helvetica,sans-Serif" font-size="10.00" fill="#ffffff">src.</text>
<text xml:space="preserve" text-anchor="middle" x="338.94" y="-162.84" font-family="Helvetica,sans-Serif" font-size="10.00" fill="#ffffff">components.</text>
<text xml:space="preserve" text-anchor="middle" x="338.94" y="-150.84" font-family="Helvetica,sans-Serif" font-size="10.00" fill="#ffffff">data_ingestion</text>
</g>
<!-- pandas&#45;&gt;src_components_data_ingestion -->
<g id="edge7" class="edge">
<title>pandas&#45;&gt;src_components_data_ingestion</title><style>.edge>path:hover{stroke-width:8}</style>
<path fill="none" stroke="black" d="M166.58,-548.05C160.83,-517.09 149.83,-449.65 150.94,-392.3"/>
<path fill="none" stroke="black" d="M150.94,-390.3C150.35,-347.99 92.73,-339.19 113.94,-302.56"/>
</g>
<!-- pandas&#45;&gt;src_data_access_proj1_data -->
<g id="edge8" class="edge">
<title>pandas&#45;&gt;src_data_access_proj1_data</title><style>.edge>path:hover{stroke-width:8}</style>
<path fill="none" stroke="black" d="M150.94,-390.3C151.29,-372.41 158.76,-354.44 167.44,-339.46"/>
<polygon fill="#33cccc" stroke="black" points="170.17,-341.71 172.46,-331.36 164.22,-338.02 170.17,-341.71"/>
</g>
<!-- pymongo -->
<g id="node6" class="node">
<title>pymongo</title><style>.edge>path:hover{stroke-width:8}</style>
<ellipse fill="#405fc0" stroke="black" cx="416.94" cy="-710.16" rx="33.52" ry="18"/>
<text xml:space="preserve" text-anchor="middle" x="416.94" y="-706.66" font-family="Helvetica,sans-Serif" font-size="10.00" fill="#ffffff">pymongo</text>
</g>
<!-- pymongo&#45;&gt;src_configuration_mongo_db_connection -->
<g id="edge9" class="edge">
<title>pymongo&#45;&gt;src_configuration_mongo_db_connection</title><style>.edge>path:hover{stroke-width:8}</style>
<path fill="none" stroke="black" d="M414.59,-691.89C413.19,-677.53 412.45,-656.7 416.94,-639.16"/>
</g>
<!-- sklearn&#45;&gt;src_components_data_ingestion -->
<g id="edge10" class="edge">
<title>sklearn&#45;&gt;src_components_data_ingestion</title><style>.edge>path:hover{stroke-width:8}</style>
<path fill="none" stroke="black" d="M482.48,-378.46C459.74,-365.06 424.81,-343.67 413.94,-332.68 402.82,-321.42 402.06,-316.7 394.94,-302.56"/>
</g>
<!-- sklearn_model_selection -->
<g id="node8" class="node">
<title>sklearn_model_selection</title><style>.edge>path:hover{stroke-width:8}</style>
<ellipse fill="#7a3db8" stroke="black" cx="394.94" cy="-391.3" rx="61.16" ry="22.63"/>
<text xml:space="preserve" text-anchor="middle" x="394.94" y="-393.8" font-family="Helvetica,sans-Serif" font-size="10.00" fill="#ffffff">sklearn.</text>
<text xml:space="preserve" text-anchor="middle" x="394.94" y="-381.8" font-family="Helvetica,sans-Serif" font-size="10.00" fill="#ffffff">model_selection</text>
</g>
<!-- sklearn_model_selection&#45;&gt;src_components_data_ingestion -->
<g id="edge11" class="edge">
<title>sklearn_model_selection&#45;&gt;src_components_data_ingestion</title><style>.edge>path:hover{stroke-width:8}</style>
<path fill="none" stroke="black" d="M400.17,-368.5C403.43,-349.94 405.29,-323.11 394.94,-302.56"/>
</g>
<!-- src_components -->
<g id="node9" class="node">
<title>src_components</title><style>.edge>path:hover{stroke-width:8}</style>
<ellipse fill="#c247a3" stroke="black" cx="174.94" cy="-166.34" rx="51.56" ry="18"/>
<text xml:space="preserve" text-anchor="middle" x="174.94" y="-162.84" font-family="Helvetica,sans-Serif" font-size="10.00" fill="#ffffff">src.components</text>
</g>
<!-- src_pipeline_training_pipeline -->
<g id="node20" class="node">
<title>src_pipeline_training_pipeline</title><style>.edge>path:hover{stroke-width:8}</style>
<ellipse fill="#81376e" stroke="black" cx="254.94" cy="-31.11" rx="60.63" ry="31.11"/>
<text xml:space="preserve" text-anchor="middle" x="254.94" y="-39.61" font-family="Helvetica,sans-Serif" font-size="10.00" fill="#ffffff">src.</text>
<text xml:space="preserve" text-anchor="middle" x="254.94" y="-27.61" font-family="Helvetica,sans-Serif" font-size="10.00" fill="#ffffff">pipeline.</text>
<text xml:space="preserve" text-anchor="middle" x="254.94" y="-15.61" font-family="Helvetica,sans-Serif" font-size="10.00" fill="#ffffff">training_pipeline</text>
</g>
<!-- src_components&#45;&gt;src_pipeline_training_pipeline -->
<g id="edge12" class="edge">
<title>src_components&#45;&gt;src_pipeline_training_pipeline</title><style>.edge>path:hover{stroke-width:8}</style>
<path fill="none" stroke="black" d="M209.15,-152.45C230.75,-141.86 254.64,-124.45 254.94,-99.23"/>
</g>
<!-- src_components_data_ingestion&#45;&gt;src_pipeline_training_pipeline -->
<g id="edge13" class="edge">
<title>src_components_data_ingestion&#45;&gt;src_pipeline_training_pipeline</title><style>.edge>path:hover{stroke-width:8}</style>
<path fill="none" stroke="black" d="M293.28,-148.31C273.43,-137.68 254.68,-121.68 254.94,-99.23"/>
</g>
<!-- src_configuration -->
<g id="node11" class="node">
<title>src_configuration</title><style>.edge>path:hover{stroke-width:8}</style>
<ellipse fill="#c247a3" stroke="black" cx="267.94" cy="-481.04" rx="50.56" ry="22.63"/>
<text xml:space="preserve" text-anchor="middle" x="267.94" y="-483.54" font-family="Helvetica,sans-Serif" font-size="10.00" fill="#ffffff">src.</text>
<text xml:space="preserve" text-anchor="middle" x="267.94" y="-471.54" font-family="Helvetica,sans-Serif" font-size="10.00" fill="#ffffff">configuration</text>
</g>
<!-- src_configuration&#45;&gt;src_data_access_proj1_data -->
<g id="edge14" class="edge">
<title>src_configuration&#45;&gt;src_data_access_proj1_data</title><style>.edge>path:hover{stroke-width:8}</style>
<path fill="none" stroke="black" d="M275.14,-458.2C280.1,-438.59 283.35,-410.2 267.94,-392.3"/>
</g>
<!-- src_configuration_mongo_db_connection&#45;&gt;src_data_access_proj1_data -->
<g id="edge15" class="edge">
<title>src_configuration_mongo_db_connection&#45;&gt;src_data_access_proj1_data</title><style>.edge>path:hover{stroke-width:8}</style>
<path fill="none" stroke="black" d="M361.61,-458.18C330.56,-443.53 293.11,-421.54 267.94,-392.3"/>
</g>
<!-- src_data_access -->
<g id="node13" class="node">
<title>src_data_access</title><style>.edge>path:hover{stroke-width:8}</style>
<ellipse fill="#c247a3" stroke="black" cx="315.94" cy="-301.56" rx="50.56" ry="22.63"/>
<text xml:space="preserve" text-anchor="middle" x="315.94" y="-304.06" font-family="Helvetica,sans-Serif" font-size="10.00" fill="#ffffff">src.</text>
<text xml:space="preserve" text-anchor="middle" x="315.94" y="-292.06" font-family="Helvetica,sans-Serif" font-size="10.00" fill="#ffffff">data_access</text>
</g>
<!-- src_data_access&#45;&gt;src_components_data_ingestion -->
<g id="edge16" class="edge">
<title>src_data_access&#45;&gt;src_components_data_ingestion</title><style>.edge>path:hover{stroke-width:8}</style>
<path fill="none" stroke="black" d="M310.64,-278.87C308.52,-265.21 308.16,-247.71 315.94,-234.45"/>
</g>
<!-- src_data_access_proj1_data&#45;&gt;src_components_data_ingestion -->
<g id="edge17" class="edge">
<title>src_data_access_proj1_data&#45;&gt;src_components_data_ingestion</title><style>.edge>path:hover{stroke-width:8}</style>
<path fill="none" stroke="black" d="M234.17,-280.37C268.59,-262.45 313.56,-238.5 315.94,-234.45"/>
</g>
<!-- src_entity -->
<g id="node15" class="node">
<title>src_entity</title><style>.edge>path:hover{stroke-width:8}</style>
<ellipse fill="#ce3ba9" stroke="black" cx="51.94" cy="-301.56" rx="33.98" ry="18"/>
<text xml:space="preserve" text-anchor="middle" x="51.94" y="-298.06" font-family="Helvetica,sans-Serif" font-size="10.00" fill="#ffffff">src.entity</text>
</g>
<!-- src_entity&#45;&gt;src_components_data_ingestion -->
<g id="edge18" class="edge">
<title>src_entity&#45;&gt;src_components_data_ingestion</title><style>.edge>path:hover{stroke-width:8}</style>
<path fill="none" stroke="black" d="M254.94,-233.45C269.16,-222.23 284.75,-209.95 298.6,-199.05"/>
<polygon fill="#ce3ba9" stroke="black" points="300.53,-201.99 306.22,-193.05 296.2,-196.49 300.53,-201.99"/>
</g>
<!-- src_entity&#45;&gt;src_pipeline_training_pipeline -->
<g id="edge19" class="edge">
<title>src_entity&#45;&gt;src_pipeline_training_pipeline</title><style>.edge>path:hover{stroke-width:8}</style>
<path fill="none" stroke="black" d="M71.22,-286.41C79.68,-280.75 89.95,-274.61 99.94,-270.45 165.24,-243.29 199.43,-278.27 254.94,-234.45"/>
<path fill="none" stroke="black" d="M254.94,-233.45C278.36,-214.97 254.59,-129.05 254.94,-99.23"/>
</g>
<!-- src_entity_artifact_entity -->
<g id="node16" class="node">
<title>src_entity_artifact_entity</title><style>.edge>path:hover{stroke-width:8}</style>
<ellipse fill="#ce3ba9" stroke="black" cx="475.94" cy="-301.56" rx="53.21" ry="31.11"/>
<text xml:space="preserve" text-anchor="middle" x="475.94" y="-310.06" font-family="Helvetica,sans-Serif" font-size="10.00" fill="#ffffff">src.</text>
<text xml:space="preserve" text-anchor="middle" x="475.94" y="-298.06" font-family="Helvetica,sans-Serif" font-size="10.00" fill="#ffffff">entity.</text>
<text xml:space="preserve" text-anchor="middle" x="475.94" y="-286.06" font-family="Helvetica,sans-Serif" font-size="10.00" fill="#ffffff">artifact_entity</text>
</g>
<!-- src_entity_artifact_entity&#45;&gt;src_components_data_ingestion -->
<g id="edge20" class="edge">
<title>src_entity_artifact_entity&#45;&gt;src_components_data_ingestion</title><style>.edge>path:hover{stroke-width:8}</style>
<path fill="none" stroke="black" d="M384.94,-233.45C379.71,-223.77 373.35,-213.8 367.05,-204.63"/>
<polygon fill="#ce3ba9" stroke="black" points="370.05,-202.8 361.43,-196.64 364.32,-206.83 370.05,-202.8"/>
<path fill="none" stroke="black" d="M435.14,-281.59C416.43,-270.62 395.99,-254.89 384.94,-234.45"/>
</g>
<!-- src_entity_artifact_entity&#45;&gt;src_pipeline_training_pipeline -->
<g id="edge21" class="edge">
<title>src_entity_artifact_entity&#45;&gt;src_pipeline_training_pipeline</title><style>.edge>path:hover{stroke-width:8}</style>
<path fill="none" stroke="black" d="M384.94,-233.45C368.83,-203.63 441.91,-195.42 422.94,-167.34"/>
<path fill="none" stroke="black" d="M422.94,-165.34C414.09,-152.22 416.8,-144.45 403.94,-135.23 348.59,-95.5 254.87,-167.35 254.94,-99.23"/>
</g>
<!-- src_entity_config_entity -->
<g id="node17" class="node">
<title>src_entity_config_entity</title><style>.edge>path:hover{stroke-width:8}</style>
<ellipse fill="#cc33a6" stroke="black" cx="597.94" cy="-301.56" rx="50.56" ry="31.11"/>
<text xml:space="preserve" text-anchor="middle" x="597.94" y="-310.06" font-family="Helvetica,sans-Serif" font-size="10.00" fill="#ffffff">src.</text>
<text xml:space="preserve" text-anchor="middle" x="597.94" y="-298.06" font-family="Helvetica,sans-Serif" font-size="10.00" fill="#ffffff">entity.</text>
<text xml:space="preserve" text-anchor="middle" x="597.94" y="-286.06" font-family="Helvetica,sans-Serif" font-size="10.00" fill="#ffffff">config_entity</text>
</g>
<!-- src_entity_config_entity&#45;&gt;src_components_data_ingestion -->
<g id="edge22" class="edge">
<title>src_entity_config_entity&#45;&gt;src_components_data_ingestion</title><style>.edge>path:hover{stroke-width:8}</style>
<path fill="none" stroke="black" d="M422.94,-233.45C409.11,-221.99 393.73,-209.75 379.95,-198.95"/>
<polygon fill="#cc33a6" stroke="black" points="382.38,-196.41 372.35,-193.01 378.07,-201.93 382.38,-196.41"/>
<path fill="none" stroke="black" d="M560.28,-280.5C552.97,-276.94 545.29,-273.42 537.94,-270.45 488.29,-250.37 464.19,-268.62 422.94,-234.45"/>
</g>
<!-- src_entity_config_entity&#45;&gt;src_pipeline_training_pipeline -->
<g id="edge23" class="edge">
<title>src_entity_config_entity&#45;&gt;src_pipeline_training_pipeline</title><style>.edge>path:hover{stroke-width:8}</style>
<path fill="none" stroke="black" d="M422.94,-233.45C400.32,-214.71 439.39,-191.69 422.94,-167.34"/>
</g>
<!-- src_exception&#45;&gt;src_components_data_ingestion -->
<g id="edge24" class="edge">
<title>src_exception&#45;&gt;src_components_data_ingestion</title><style>.edge>path:hover{stroke-width:8}</style>
<path fill="none" stroke="black" d="M524.94,-565.16C521.69,-541.01 535.81,-536.32 538.94,-512.16 542.5,-484.73 556.8,-471.05 538.94,-449.93 476.66,-376.29 387.23,-487.57 324.94,-413.93 311.95,-398.57 315.69,-386.53 324.94,-368.68 344.63,-330.68 414.2,-340.78 394.94,-302.56"/>
<path fill="none" stroke="black" d="M394.94,-300.56C387.44,-286.63 387.26,-281.51 375.94,-270.45 353.71,-248.71 300.2,-261.27 315.94,-234.45"/>
</g>
<!-- src_exception&#45;&gt;src_configuration_mongo_db_connection -->
<g id="edge25" class="edge">
<title>src_exception&#45;&gt;src_configuration_mongo_db_connection</title><style>.edge>path:hover{stroke-width:8}</style>
<path fill="none" stroke="black" d="M526.22,-619.81C526.97,-605.59 527.34,-584.98 524.94,-567.16"/>
<path fill="none" stroke="black" d="M524.94,-565.16C521.66,-540.76 503.2,-522.46 482.44,-509.34"/>
<polygon fill="#e619b3" stroke="black" points="484.49,-506.48 474.1,-504.43 480.95,-512.52 484.49,-506.48"/>
</g>
<!-- src_exception&#45;&gt;src_data_access_proj1_data -->
<g id="edge26" class="edge">
<title>src_exception&#45;&gt;src_data_access_proj1_data</title><style>.edge>path:hover{stroke-width:8}</style>
<path fill="none" stroke="black" d="M524.94,-480.04C513.89,-468.72 519.12,-458.7 505.94,-449.93 425.66,-396.49 378.79,-455.89 291.94,-413.93 279.01,-407.68 277.44,-403.07 267.94,-392.3"/>
<path fill="none" stroke="black" d="M524.94,-565.16C520.02,-528.55 550.76,-508.47 524.94,-482.04"/>
</g>
<!-- src_exception&#45;&gt;src_pipeline_training_pipeline -->
<g id="edge27" class="edge">
<title>src_exception&#45;&gt;src_pipeline_training_pipeline</title><style>.edge>path:hover{stroke-width:8}</style>
<path fill="none" stroke="black" d="M553.53,-624.08C597.56,-601.74 676.94,-551.8 676.94,-482.04 676.94,-482.04 676.94,-482.04 676.94,-390.3 676.94,-336.37 690.89,-313.15 657.94,-270.45 588.26,-180.16 486.79,-261.85 422.94,-167.34"/>
</g>
<!-- src_logger&#45;&gt;src_components_data_ingestion -->
<g id="edge28" class="edge">
<title>src_logger&#45;&gt;src_components_data_ingestion</title><style>.edge>path:hover{stroke-width:8}</style>
<path fill="none" stroke="black" d="M315.94,-233.45C320.53,-225.64 324.39,-216.77 327.57,-208.13"/>
<polygon fill="#dd18ac" stroke="black" points="330.83,-209.42 330.74,-198.82 324.2,-207.16 330.83,-209.42"/>
<path fill="none" stroke="black" d="M112.94,-390.3C101.47,-353.03 94.4,-336.31 113.94,-302.56"/>
<path fill="none" stroke="black" d="M113.94,-300.56C121.87,-286.87 119.89,-279.4 132.94,-270.45 201.31,-223.57 273.97,-305.93 315.94,-234.45"/>
</g>
<!-- src_logger&#45;&gt;src_configuration_mongo_db_connection -->
<g id="edge29" class="edge">
<title>src_logger&#45;&gt;src_configuration_mongo_db_connection</title><style>.edge>path:hover{stroke-width:8}</style>
<path fill="none" stroke="black" d="M226.94,-565.16C231.73,-552.61 295.49,-526.45 347.85,-506.81"/>
<polygon fill="#dd18ac" stroke="black" points="348.92,-510.15 357.07,-503.38 346.47,-503.59 348.92,-510.15"/>
</g>
<!-- src_logger&#45;&gt;src_data_access_proj1_data -->
<g id="edge30" class="edge">
<title>src_logger&#45;&gt;src_data_access_proj1_data</title><style>.edge>path:hover{stroke-width:8}</style>
<path fill="none" stroke="black" d="M267.94,-390.3C253.43,-373.45 237.62,-354.52 224.43,-338.56"/>
<polygon fill="#dd18ac" stroke="black" points="227.42,-336.69 218.36,-331.2 222.02,-341.14 227.42,-336.69"/>
<path fill="none" stroke="black" d="M223.6,-619.85C221.56,-605.29 220.45,-584.19 226.94,-567.16"/>
<path fill="none" stroke="black" d="M226.94,-565.16C235.86,-541.78 212.23,-536.81 207.94,-512.16 203.21,-484.91 197.1,-475.37 207.94,-449.93 222.44,-415.92 292.07,-420.32 267.94,-392.3"/>
</g>
<!-- src_logger&#45;&gt;src_pipeline_training_pipeline -->
<g id="edge31" class="edge">
<title>src_logger&#45;&gt;src_pipeline_training_pipeline</title><style>.edge>path:hover{stroke-width:8}</style>
<path fill="none" stroke="black" d="M254.94,-98.23C254.95,-90.44 254.96,-82.13 254.96,-74.13"/>
<polygon fill="#dd18ac" stroke="black" points="258.46,-74.24 254.96,-64.24 251.46,-74.24 258.46,-74.24"/>
<path fill="none" stroke="black" d="M196.41,-628.5C174.66,-620.63 146.75,-606.74 131.94,-584.16 84.96,-512.5 138.14,-474.2 112.94,-392.3"/>
<path fill="none" stroke="black" d="M112.94,-390.3C96.58,-340.06 35.77,-378.21 8.94,-332.68 -5.09,-308.85 -0.02,-296.61 8.94,-270.45 33.61,-198.47 50.31,-176.94 113.94,-135.23 168.03,-99.77 254.88,-163.9 254.94,-99.23"/>
</g>
</g>
</svg>
