<?xml version="1.0" encoding="UTF-8" standalone="no"?>
<!DOCTYPE svg PUBLIC "-//W3C//DTD SVG 1.1//EN"
 "http://www.w3.org/Graphics/SVG/1.1/DTD/svg11.dtd">
<!-- Generated by graphviz version 14.0.2 (20251019.1705)
 -->
<!-- Title: G Pages: 1 -->
<svg width="723pt" height="693pt"
 viewBox="0.00 0.00 723.00 693.00" xmlns="http://www.w3.org/2000/svg" xmlns:xlink="http://www.w3.org/1999/xlink">
<g id="graph0" class="graph" transform="scale(1 1) rotate(0) translate(4 688.96)">
<title>G</title><style>.edge>path:hover{stroke-width:8}</style>
<polygon fill="white" stroke="none" points="-4,4 -4,-688.96 719.47,-688.96 719.47,4 -4,4"/>
<!-- from_root -->
<g id="node1" class="node">
<title>from_root</title><style>.edge>path:hover{stroke-width:8}</style>
<ellipse fill="#c04040" stroke="black" cx="500.63" cy="-666.96" rx="34.43" ry="18"/>
<text xml:space="preserve" text-anchor="middle" x="500.63" y="-663.46" font-family="Helvetica,sans-Serif" font-size="10.00" fill="#ffffff">from_root</text>
</g>
<!-- src_logger -->
<g id="node15" class="node">
<title>src_logger</title><style>.edge>path:hover{stroke-width:8}</style>
<ellipse fill="#3131c4" stroke="black" cx="492.63" cy="-522.96" rx="35.33" ry="18"/>
<text xml:space="preserve" text-anchor="middle" x="492.63" y="-519.46" font-family="Helvetica,sans-Serif" font-size="10.00" fill="#ffffff">src.logger</text>
</g>
<!-- from_root&#45;&gt;src_logger -->
<g id="edge1" class="edge">
<title>from_root&#45;&gt;src_logger</title><style>.edge>path:hover{stroke-width:8}</style>
<path fill="none" stroke="black" d="M503.49,-648.55C505.19,-634.11 506.09,-613.23 500.63,-595.96"/>
<path fill="none" stroke="black" d="M500.63,-593.96C496.46,-580.79 494.42,-565.62 493.43,-552.78"/>
<polygon fill="#c04040" stroke="black" points="496.93,-552.61 492.86,-542.83 489.94,-553.01 496.93,-552.61"/>
</g>
<!-- loguru -->
<g id="node2" class="node">
<title>loguru</title><style>.edge>path:hover{stroke-width:8}</style>
<ellipse fill="#cccc33" stroke="black" cx="579.63" cy="-666.96" rx="27" ry="18"/>
<text xml:space="preserve" text-anchor="middle" x="579.63" y="-663.46" font-family="Helvetica,sans-Serif" font-size="10.00" fill="#000000">loguru</text>
</g>
<!-- src_exception -->
<g id="node14" class="node">
<title>src_exception</title><style>.edge>path:hover{stroke-width:8}</style>
<ellipse fill="#3333cc" stroke="black" cx="638.63" cy="-522.96" rx="44.8" ry="18"/>
<text xml:space="preserve" text-anchor="middle" x="638.63" y="-519.46" font-family="Helvetica,sans-Serif" font-size="10.00" fill="#ffffff">src.exception</text>
</g>
<!-- loguru&#45;&gt;src_exception -->
<g id="edge2" class="edge">
<title>loguru&#45;&gt;src_exception</title><style>.edge>path:hover{stroke-width:8}</style>
<path fill="none" stroke="black" d="M587.41,-649.35C592.22,-638.95 598.44,-625.24 603.63,-612.96 612.22,-592.64 621.32,-569.43 628.09,-551.81"/>
<polygon fill="#cccc33" stroke="black" points="631.33,-553.13 631.63,-542.54 624.79,-550.63 631.33,-553.13"/>
</g>
<!-- loguru&#45;&gt;src_logger -->
<g id="edge3" class="edge">
<title>loguru&#45;&gt;src_logger</title><style>.edge>path:hover{stroke-width:8}</style>
<path fill="none" stroke="black" d="M558.36,-655.61C538.12,-644.27 509.47,-623.92 500.63,-595.96"/>
</g>
<!-- pandas -->
<g id="node3" class="node">
<title>pandas</title><style>.edge>path:hover{stroke-width:8}</style>
<ellipse fill="#33cc33" stroke="black" cx="565.63" cy="-594.96" rx="28.56" ry="18"/>
<text xml:space="preserve" text-anchor="middle" x="565.63" y="-591.46" font-family="Helvetica,sans-Serif" font-size="10.00" fill="#000000">pandas</text>
</g>
<!-- src_components_data_ingestion -->
<g id="node8" class="node">
<title>src_components_data_ingestion</title><style>.edge>path:hover{stroke-width:8}</style>
<ellipse fill="#2e2e6b" stroke="black" cx="399.63" cy="-221.37" rx="55.86" ry="31.11"/>
<text xml:space="preserve" text-anchor="middle" x="399.63" y="-229.87" font-family="Helvetica,sans-Serif" font-size="10.00" fill="#ffffff">src.</text>
<text xml:space="preserve" text-anchor="middle" x="399.63" y="-217.87" font-family="Helvetica,sans-Serif" font-size="10.00" fill="#ffffff">components.</text>
<text xml:space="preserve" text-anchor="middle" x="399.63" y="-205.87" font-family="Helvetica,sans-Serif" font-size="10.00" fill="#ffffff">data_ingestion</text>
</g>
<!-- pandas&#45;&gt;src_components_data_ingestion -->
<g id="edge4" class="edge">
<title>pandas&#45;&gt;src_components_data_ingestion</title><style>.edge>path:hover{stroke-width:8}</style>
<path fill="none" stroke="black" d="M565.63,-355.59C555.53,-343.41 559.44,-334.77 546.63,-325.48 493.57,-287.01 406.25,-354.97 403.63,-289.48"/>
<path fill="none" stroke="black" d="M565.63,-445.33C555.99,-407.55 590.51,-387.62 565.63,-357.59"/>
</g>
<!-- src_data_access_proj1_data -->
<g id="node10" class="node">
<title>src_data_access_proj1_data</title><style>.edge>path:hover{stroke-width:8}</style>
<ellipse fill="#43439d" stroke="black" cx="484.63" cy="-356.59" rx="52.68" ry="31.11"/>
<text xml:space="preserve" text-anchor="middle" x="484.63" y="-365.09" font-family="Helvetica,sans-Serif" font-size="10.00" fill="#ffffff">src.</text>
<text xml:space="preserve" text-anchor="middle" x="484.63" y="-353.09" font-family="Helvetica,sans-Serif" font-size="10.00" fill="#ffffff">data_access.</text>
<text xml:space="preserve" text-anchor="middle" x="484.63" y="-341.09" font-family="Helvetica,sans-Serif" font-size="10.00" fill="#ffffff">proj1_data</text>
</g>
<!-- pandas&#45;&gt;src_data_access_proj1_data -->
<g id="edge5" class="edge">
<title>pandas&#45;&gt;src_data_access_proj1_data</title><style>.edge>path:hover{stroke-width:8}</style>
<path fill="none" stroke="black" d="M565.63,-445.33C560.73,-422.55 544.51,-402.86 527.87,-387.94"/>
<polygon fill="#33cc33" stroke="black" points="530.23,-385.35 520.33,-381.56 525.7,-390.69 530.23,-385.35"/>
<path fill="none" stroke="black" d="M567.97,-576.56C571.17,-548.84 575.48,-493.12 565.63,-447.33"/>
</g>
<!-- sklearn -->
<g id="node4" class="node">
<title>sklearn</title><style>.edge>path:hover{stroke-width:8}</style>
<ellipse fill="#33cccc" stroke="black" cx="245.63" cy="-446.33" rx="28.56" ry="18"/>
<text xml:space="preserve" text-anchor="middle" x="245.63" y="-442.83" font-family="Helvetica,sans-Serif" font-size="10.00" fill="#000000">sklearn</text>
</g>
<!-- sklearn&#45;&gt;src_components_data_ingestion -->
<g id="edge6" class="edge">
<title>sklearn&#45;&gt;src_components_data_ingestion</title><style>.edge>path:hover{stroke-width:8}</style>
<path fill="none" stroke="black" d="M239.63,-428.43C233.87,-408.79 228.33,-376.66 245.63,-357.59"/>
</g>
<!-- sklearn_model_selection -->
<g id="node5" class="node">
<title>sklearn_model_selection</title><style>.edge>path:hover{stroke-width:8}</style>
<ellipse fill="#3db8b8" stroke="black" cx="403.63" cy="-446.33" rx="61.16" ry="22.63"/>
<text xml:space="preserve" text-anchor="middle" x="403.63" y="-448.83" font-family="Helvetica,sans-Serif" font-size="10.00" fill="#000000">sklearn.</text>
<text xml:space="preserve" text-anchor="middle" x="403.63" y="-436.83" font-family="Helvetica,sans-Serif" font-size="10.00" fill="#000000">model_selection</text>
</g>
<!-- sklearn_model_selection&#45;&gt;src_components_data_ingestion -->
<g id="edge7" class="edge">
<title>sklearn_model_selection&#45;&gt;src_components_data_ingestion</title><style>.edge>path:hover{stroke-width:8}</style>
<path fill="none" stroke="black" d="M404.16,-423.38C404.77,-393.2 405.46,-337.2 403.63,-289.48"/>
</g>
<!-- src -->
<g id="node6" class="node">
<title>src</title><style>.edge>path:hover{stroke-width:8}</style>
<ellipse fill="#2f2fdb" stroke="black" cx="222.63" cy="-136.25" rx="27" ry="18"/>
<text xml:space="preserve" text-anchor="middle" x="222.63" y="-132.75" font-family="Helvetica,sans-Serif" font-size="10.00" fill="#ffffff">src</text>
</g>
<!-- training_pipeline_py -->
<g id="node16" class="node">
<title>training_pipeline_py</title><style>.edge>path:hover{stroke-width:8}</style>
<ellipse fill="#774077" stroke="black" cx="319.63" cy="-22.63" rx="62.76" ry="22.63"/>
<text xml:space="preserve" text-anchor="middle" x="319.63" y="-25.13" font-family="Helvetica,sans-Serif" font-size="10.00" fill="#ffffff">training_pipeline.</text>
<text xml:space="preserve" text-anchor="middle" x="319.63" y="-13.13" font-family="Helvetica,sans-Serif" font-size="10.00" fill="#ffffff">py</text>
</g>
<!-- src&#45;&gt;training_pipeline_py -->
<g id="edge8" class="edge">
<title>src&#45;&gt;training_pipeline_py</title><style>.edge>path:hover{stroke-width:8}</style>
<path fill="none" stroke="black" d="M243.77,-124.62C271.89,-110.34 318.25,-86.29 319.63,-82.25"/>
</g>
<!-- src_components -->
<g id="node7" class="node">
<title>src_components</title><style>.edge>path:hover{stroke-width:8}</style>
<ellipse fill="#5353b6" stroke="black" cx="319.63" cy="-136.25" rx="51.56" ry="18"/>
<text xml:space="preserve" text-anchor="middle" x="319.63" y="-132.75" font-family="Helvetica,sans-Serif" font-size="10.00" fill="#ffffff">src.components</text>
</g>
<!-- src_components&#45;&gt;training_pipeline_py -->
<g id="edge9" class="edge">
<title>src_components&#45;&gt;training_pipeline_py</title><style>.edge>path:hover{stroke-width:8}</style>
<path fill="none" stroke="black" d="M316.86,-118.09C315.82,-107.48 315.7,-93.75 319.63,-82.25"/>
</g>
<!-- src_components_data_ingestion&#45;&gt;training_pipeline_py -->
<g id="edge10" class="edge">
<title>src_components_data_ingestion&#45;&gt;training_pipeline_py</title><style>.edge>path:hover{stroke-width:8}</style>
<path fill="none" stroke="black" d="M406.2,-190.27C408.26,-173.71 408.13,-153.33 399.63,-137.25"/>
</g>
<!-- src_data_access -->
<g id="node9" class="node">
<title>src_data_access</title><style>.edge>path:hover{stroke-width:8}</style>
<ellipse fill="#5353b6" stroke="black" cx="324.63" cy="-356.59" rx="50.56" ry="22.63"/>
<text xml:space="preserve" text-anchor="middle" x="324.63" y="-359.09" font-family="Helvetica,sans-Serif" font-size="10.00" fill="#ffffff">src.</text>
<text xml:space="preserve" text-anchor="middle" x="324.63" y="-347.09" font-family="Helvetica,sans-Serif" font-size="10.00" fill="#ffffff">data_access</text>
</g>
<!-- src_data_access&#45;&gt;src_components_data_ingestion -->
<g id="edge11" class="edge">
<title>src_data_access&#45;&gt;src_components_data_ingestion</title><style>.edge>path:hover{stroke-width:8}</style>
<path fill="none" stroke="black" d="M361.98,-341.18C382.86,-330.42 404.55,-313.43 403.63,-289.48"/>
</g>
<!-- src_data_access_proj1_data&#45;&gt;src_components_data_ingestion -->
<g id="edge12" class="edge">
<title>src_data_access_proj1_data&#45;&gt;src_components_data_ingestion</title><style>.edge>path:hover{stroke-width:8}</style>
<path fill="none" stroke="black" d="M441.51,-338.14C422.61,-327.4 404.47,-311.43 403.63,-289.48"/>
</g>
<!-- src_entity -->
<g id="node11" class="node">
<title>src_entity</title><style>.edge>path:hover{stroke-width:8}</style>
<ellipse fill="#4747c2" stroke="black" cx="59.63" cy="-356.59" rx="33.98" ry="18"/>
<text xml:space="preserve" text-anchor="middle" x="59.63" y="-353.09" font-family="Helvetica,sans-Serif" font-size="10.00" fill="#ffffff">src.entity</text>
</g>
<!-- src_entity&#45;&gt;src_components_data_ingestion -->
<g id="edge13" class="edge">
<title>src_entity&#45;&gt;src_components_data_ingestion</title><style>.edge>path:hover{stroke-width:8}</style>
<path fill="none" stroke="black" d="M167.63,-288.48C218.9,-257.5 285.3,-240.5 333.92,-231.53"/>
<polygon fill="#4747c2" stroke="black" points="334.53,-234.98 343.76,-229.79 333.31,-228.08 334.53,-234.98"/>
</g>
<!-- src_entity&#45;&gt;training_pipeline_py -->
<g id="edge14" class="edge">
<title>src_entity&#45;&gt;training_pipeline_py</title><style>.edge>path:hover{stroke-width:8}</style>
<path fill="none" stroke="black" d="M167.63,-288.48C192.78,-273.28 158.3,-250.23 167.63,-222.37"/>
<path fill="none" stroke="black" d="M79.03,-341.36C86.32,-336.19 94.74,-330.41 102.63,-325.48 130.64,-307.98 139.36,-306.56 167.63,-289.48"/>
</g>
<!-- src_entity_artifact_entity -->
<g id="node12" class="node">
<title>src_entity_artifact_entity</title><style>.edge>path:hover{stroke-width:8}</style>
<ellipse fill="#4747c2" stroke="black" cx="164.63" cy="-356.59" rx="53.21" ry="31.11"/>
<text xml:space="preserve" text-anchor="middle" x="164.63" y="-365.09" font-family="Helvetica,sans-Serif" font-size="10.00" fill="#ffffff">src.</text>
<text xml:space="preserve" text-anchor="middle" x="164.63" y="-353.09" font-family="Helvetica,sans-Serif" font-size="10.00" fill="#ffffff">entity.</text>
<text xml:space="preserve" text-anchor="middle" x="164.63" y="-341.09" font-family="Helvetica,sans-Serif" font-size="10.00" fill="#ffffff">artifact_entity</text>
</g>
<!-- src_entity_artifact_entity&#45;&gt;src_components_data_ingestion -->
<g id="edge15" class="edge">
<title>src_entity_artifact_entity&#45;&gt;src_components_data_ingestion</title><style>.edge>path:hover{stroke-width:8}</style>
<path fill="none" stroke="black" d="M315.63,-288.48C329.16,-276.66 344.47,-264.33 358.27,-253.56"/>
<polygon fill="#4747c2" stroke="black" points="360.13,-256.55 365.9,-247.66 355.85,-251.01 360.13,-256.55"/>
</g>
<!-- src_entity_artifact_entity&#45;&gt;training_pipeline_py -->
<g id="edge16" class="edge">
<title>src_entity_artifact_entity&#45;&gt;training_pipeline_py</title><style>.edge>path:hover{stroke-width:8}</style>
<path fill="none" stroke="black" d="M206.04,-336.85C214.49,-333.06 223.34,-329.12 231.63,-325.48 268.82,-309.15 285.04,-316.2 315.63,-289.48"/>
<path fill="none" stroke="black" d="M315.63,-288.48C349.12,-259.23 311.43,-228.19 334.63,-190.25 354.08,-158.46 417.05,-170.21 399.63,-137.25"/>
<path fill="none" stroke="black" d="M399.63,-135.25C394.04,-125.4 389.77,-124.94 380.63,-118.25 355.22,-99.67 309.44,-112.04 319.63,-82.25"/>
</g>
<!-- src_entity_config_entity -->
<g id="node13" class="node">
<title>src_entity_config_entity</title><style>.edge>path:hover{stroke-width:8}</style>
<ellipse fill="#4040c0" stroke="black" cx="644.63" cy="-356.59" rx="50.56" ry="31.11"/>
<text xml:space="preserve" text-anchor="middle" x="644.63" y="-365.09" font-family="Helvetica,sans-Serif" font-size="10.00" fill="#ffffff">src.</text>
<text xml:space="preserve" text-anchor="middle" x="644.63" y="-353.09" font-family="Helvetica,sans-Serif" font-size="10.00" fill="#ffffff">entity.</text>
<text xml:space="preserve" text-anchor="middle" x="644.63" y="-341.09" font-family="Helvetica,sans-Serif" font-size="10.00" fill="#ffffff">config_entity</text>
</g>
<!-- src_entity_config_entity&#45;&gt;src_components_data_ingestion -->
<g id="edge17" class="edge">
<title>src_entity_config_entity&#45;&gt;src_components_data_ingestion</title><style>.edge>path:hover{stroke-width:8}</style>
<path fill="none" stroke="black" d="M445.63,-288.48C438.83,-279.57 431.79,-269.75 425.31,-260.48"/>
<polygon fill="#4040c0" stroke="black" points="428.23,-258.54 419.66,-252.31 422.47,-262.52 428.23,-258.54"/>
<path fill="none" stroke="black" d="M605.9,-336.33C597.36,-332.46 588.28,-328.62 579.63,-325.48 521.66,-304.44 483.01,-338.53 445.63,-289.48"/>
</g>
<!-- src_entity_config_entity&#45;&gt;training_pipeline_py -->
<g id="edge18" class="edge">
<title>src_entity_config_entity&#45;&gt;training_pipeline_py</title><style>.edge>path:hover{stroke-width:8}</style>
<path fill="none" stroke="black" d="M483.63,-220.37C470.51,-169.51 425.53,-182.94 399.63,-137.25"/>
<path fill="none" stroke="black" d="M445.63,-288.48C425.09,-261.52 492.09,-255.18 483.63,-222.37"/>
</g>
<!-- src_exception&#45;&gt;src_components_data_ingestion -->
<g id="edge19" class="edge">
<title>src_exception&#45;&gt;src_components_data_ingestion</title><style>.edge>path:hover{stroke-width:8}</style>
<path fill="none" stroke="black" d="M603.63,-445.33C597.7,-424.93 579.19,-373.95 565.63,-357.59"/>
</g>
<!-- src_exception&#45;&gt;src_data_access_proj1_data -->
<g id="edge20" class="edge">
<title>src_exception&#45;&gt;src_data_access_proj1_data</title><style>.edge>path:hover{stroke-width:8}</style>
<path fill="none" stroke="black" d="M628.83,-505.07C620.75,-490.32 609.65,-468.08 603.63,-447.33"/>
<path fill="none" stroke="black" d="M603.63,-445.33C598.59,-427.98 563.11,-403.19 532.2,-384.38"/>
<polygon fill="#3333cc" stroke="black" points="534.04,-381.4 523.66,-379.27 530.45,-387.41 534.04,-381.4"/>
</g>
<!-- src_exception&#45;&gt;training_pipeline_py -->
<g id="edge21" class="edge">
<title>src_exception&#45;&gt;training_pipeline_py</title><style>.edge>path:hover{stroke-width:8}</style>
<path fill="none" stroke="black" d="M603.63,-445.33C589.22,-395.7 678.67,-432.4 704.63,-387.71 718.52,-363.79 719.49,-348.81 704.63,-325.48 646.4,-234.06 510.7,-327.32 483.63,-222.37"/>
</g>
<!-- src_logger&#45;&gt;src_components_data_ingestion -->
<g id="edge22" class="edge">
<title>src_logger&#45;&gt;src_components_data_ingestion</title><style>.edge>path:hover{stroke-width:8}</style>
<path fill="none" stroke="black" d="M188.63,-445.33C163.1,-428.31 210,-413.49 226.63,-387.71 235.21,-374.41 234.99,-369.31 245.63,-357.59"/>
<path fill="none" stroke="black" d="M245.63,-355.59C256.26,-343.87 251.85,-334.81 264.63,-325.48 316.17,-287.85 406.18,-353.25 403.63,-289.48"/>
<path fill="none" stroke="black" d="M403.63,-288.48C403.31,-280.51 402.87,-272.01 402.4,-263.85"/>
<polygon fill="#3131c4" stroke="black" points="405.91,-263.92 401.81,-254.14 398.92,-264.34 405.91,-263.92"/>
</g>
<!-- src_logger&#45;&gt;src_data_access_proj1_data -->
<g id="edge23" class="edge">
<title>src_logger&#45;&gt;src_data_access_proj1_data</title><style>.edge>path:hover{stroke-width:8}</style>
<path fill="none" stroke="black" d="M491.79,-504.68C490.58,-479.91 488.32,-433.53 486.67,-399.45"/>
<polygon fill="#3131c4" stroke="black" points="490.16,-399.3 486.18,-389.48 483.17,-399.64 490.16,-399.3"/>
</g>
<!-- src_logger&#45;&gt;training_pipeline_py -->
<g id="edge24" class="edge">
<title>src_logger&#45;&gt;training_pipeline_py</title><style>.edge>path:hover{stroke-width:8}</style>
<path fill="none" stroke="black" d="M188.63,-445.33C121.56,-400.6 63.72,-453.14 16.63,-387.71 -61.06,-279.75 163.52,-234.64 167.63,-222.37"/>
<path fill="none" stroke="black" d="M457.24,-522.61C400.75,-522.12 288.35,-514.85 207.63,-468.96 196.51,-462.64 199.13,-454.64 188.63,-447.33"/>
<path fill="none" stroke="black" d="M319.63,-81.25C322.24,-73.62 323.21,-65.08 323.31,-56.96"/>
<polygon fill="#3131c4" stroke="black" points="326.81,-56.91 322.97,-47.03 319.81,-57.15 326.81,-56.91"/>
<path fill="none" stroke="black" d="M167.63,-220.37C185.35,-177.74 155.32,-152.18 186.63,-118.25 228.16,-73.25 299.8,-140.19 319.63,-82.25"/>
</g>
</g>
</svg>
